<svg xmlns="http://www.w3.org/2000/svg" width="900" height="650" viewBox="0 0 900 650" role="img" aria-labelledby="title desc">
  <title id="title">Marvell Technology Investment quality — higher is better</title>
  <desc id="desc">Radar score based on the dated evidence and rubric in reports/ai-company-radar.md.</desc>
  <rect width="100%" height="100%" fill="#ffffff"/>
  <text x="42" y="45" font-size="25" font-weight="700" fill="#111827">Marvell Technology (MRVL)</text>
  <text x="42" y="75" font-size="17" fill="#147d64">Investment quality — higher is better</text>
  <text x="620" y="115" font-size="14" fill="#4b5563">Evidence date: 2026-06-22</text>
  <text x="620" y="142" font-size="14" fill="#4b5563">Confidence: moderate</text>
  <text x="620" y="169" font-size="14" fill="#4b5563">Peer group: Optical / networking silicon</text>
  <polygon points="330.0,286.0 361.1,298.9 374.0,330.0 361.1,361.1 330.0,374.0 298.9,361.1 286.0,330.0 298.9,298.9" fill="none" stroke="#d5d9dd" stroke-width="1"/>
<polygon points="330.0,242.0 392.2,267.8 418.0,330.0 392.2,392.2 330.0,418.0 267.8,392.2 242.0,330.0 267.8,267.8" fill="none" stroke="#d5d9dd" stroke-width="1"/>
<polygon points="330.0,198.0 423.3,236.7 462.0,330.0 423.3,423.3 330.0,462.0 236.7,423.3 198.0,330.0 236.7,236.7" fill="none" stroke="#d5d9dd" stroke-width="1"/>
<polygon points="330.0,154.0 454.5,205.5 506.0,330.0 454.5,454.5 330.0,506.0 205.5,454.5 154.0,330.0 205.5,205.5" fill="none" stroke="#d5d9dd" stroke-width="1"/>
<polygon points="330.0,110.0 485.6,174.4 550.0,330.0 485.6,485.6 330.0,550.0 174.4,485.6 110.0,330.0 174.4,174.4" fill="none" stroke="#d5d9dd" stroke-width="1"/>
  <line x1="330" y1="330" x2="330.0" y2="110.0" stroke="#b8bec4"/>
    <text x="330.0" y="68.0" text-anchor="middle" dominant-baseline="middle" font-size="14">AI exposure</text>
<line x1="330" y1="330" x2="485.6" y2="174.4" stroke="#b8bec4"/>
    <text x="515.3" y="144.7" text-anchor="start" dominant-baseline="middle" font-size="14">Market power</text>
<line x1="330" y1="330" x2="550.0" y2="330.0" stroke="#b8bec4"/>
    <text x="592.0" y="330.0" text-anchor="start" dominant-baseline="middle" font-size="14">Growth</text>
<line x1="330" y1="330" x2="485.6" y2="485.6" stroke="#b8bec4"/>
    <text x="515.3" y="515.3" text-anchor="start" dominant-baseline="middle" font-size="14">Profitability</text>
<line x1="330" y1="330" x2="330.0" y2="550.0" stroke="#b8bec4"/>
    <text x="330.0" y="592.0" text-anchor="middle" dominant-baseline="middle" font-size="14">Capital efficiency</text>
<line x1="330" y1="330" x2="174.4" y2="485.6" stroke="#b8bec4"/>
    <text x="144.7" y="515.3" text-anchor="end" dominant-baseline="middle" font-size="14">Balance sheet</text>
<line x1="330" y1="330" x2="110.0" y2="330.0" stroke="#b8bec4"/>
    <text x="68.0" y="330.0" text-anchor="end" dominant-baseline="middle" font-size="14">Valuation support</text>
<line x1="330" y1="330" x2="174.4" y2="174.4" stroke="#b8bec4"/>
    <text x="144.7" y="144.7" text-anchor="end" dominant-baseline="middle" font-size="14">Governance</text>
  <polygon points="330.0,143.0 431.1,228.9 517.0,330.0 415.6,415.6 330.0,462.0 221.1,438.9 264.0,330.0 221.1,221.1" fill="#147d64" fill-opacity="0.24" stroke="#147d64" stroke-width="3"/>
  <circle cx="330.0" cy="143.0" r="4" fill="#147d64"><title>AI exposure: 85</title></circle>
<circle cx="431.1" cy="228.9" r="4" fill="#147d64"><title>Market power: 65</title></circle>
<circle cx="517.0" cy="330.0" r="4" fill="#147d64"><title>Growth: 85</title></circle>
<circle cx="415.6" cy="415.6" r="4" fill="#147d64"><title>Profitability: 55</title></circle>
<circle cx="330.0" cy="462.0" r="4" fill="#147d64"><title>Capital efficiency: 60</title></circle>
<circle cx="221.1" cy="438.9" r="4" fill="#147d64"><title>Balance sheet: 70</title></circle>
<circle cx="264.0" cy="330.0" r="4" fill="#147d64"><title>Valuation support: 30</title></circle>
<circle cx="221.1" cy="221.1" r="4" fill="#147d64"><title>Governance: 70</title></circle>
  <text x="620" y="205" font-size="15" font-weight="700" fill="#111827">Scores (0–100)</text>
  <text x="620" y="230" font-size="14" fill="#30363d">AI exposure: 85</text>
<text x="620" y="259" font-size="14" fill="#30363d">Market power: 65</text>
<text x="620" y="288" font-size="14" fill="#30363d">Growth: 85</text>
<text x="620" y="317" font-size="14" fill="#30363d">Profitability: 55</text>
<text x="620" y="346" font-size="14" fill="#30363d">Capital efficiency: 60</text>
<text x="620" y="375" font-size="14" fill="#30363d">Balance sheet: 70</text>
<text x="620" y="404" font-size="14" fill="#30363d">Valuation support: 30</text>
<text x="620" y="433" font-size="14" fill="#30363d">Governance: 70</text>
  <text x="42" y="625" font-size="12" fill="#6b7280">Scores are rubric-based research assessments, not measurements or forecasts. See source file for inputs and ownership definitions.</text>
</svg>
